<svg xmlns="http://www.w3.org/2000/svg" xmlns:xlink="http://www.w3.org/1999/xlink" width="1626" height="368" viewBox="0 0 1626 368">
  <defs>
    <style>
      .cls-1 {
        fill: #fe3e57;
        filter: url(#filter);
      }

      .cls-1, .cls-2 {
        fill-rule: evenodd;
      }

      .cls-2 {
        fill: #34c3ff;
      }
    </style>
    <filter id="filter" x="1561" y="303" width="66" height="66" filterUnits="userSpaceOnUse">
      <feOffset result="offset" dy="3" in="SourceAlpha"/>
      <feGaussianBlur result="blur" stdDeviation="3.162"/>
      <feFlood result="flood" flood-color="#fe3e57" flood-opacity="0.5"/>
      <feComposite result="composite" operator="in" in2="blur"/>
      <feBlend result="blend" in="SourceGraphic"/>
    </filter>
  </defs>
  <path class="cls-1" d="M1593.5,309a23.5,23.5,0,1,0,23.5,23.5A23.5,23.5,0,0,0,1593.5,309Zm0,42.195a18.7,18.7,0,1,1,18.7-18.7A18.7,18.7,0,0,1,1593.5,351.2Zm0.02-24.3a5.605,5.605,0,1,0,5.59,5.623A5.607,5.607,0,0,0,1593.52,326.894Z"/>
  <path class="cls-2" d="M81.4,28.765a2.158,2.158,0,1,0,2.161,2.158A2.159,2.159,0,0,0,81.4,28.765Zm-14.406,0a2.158,2.158,0,1,0,2.16,2.158A2.16,2.16,0,0,0,66.992,28.765Zm0-14.384a2.158,2.158,0,1,0,2.16,2.158A2.16,2.16,0,0,0,66.992,14.381Zm-14.407,0h0a2.158,2.158,0,1,0,0,4.316h0A2.158,2.158,0,1,0,52.585,14.381Zm21.61,21.577a2.157,2.157,0,1,0,2.16,2.158A2.159,2.159,0,0,0,74.195,35.958Zm14.407,0a2.157,2.157,0,1,0,2.161,2.158A2.159,2.159,0,0,0,88.6,35.958ZM74.195,21.574a2.158,2.158,0,1,0,2.16,2.158A2.159,2.159,0,0,0,74.195,21.574Zm-14.407,0a2.158,2.158,0,1,0,2.161,2.158A2.159,2.159,0,0,0,59.788,21.574Zm36.017,35.96a2.158,2.158,0,1,0,2.16,2.158A2.159,2.159,0,0,0,95.805,57.533Zm-14.407,0a2.158,2.158,0,1,0,2.161,2.158A2.158,2.158,0,0,0,81.4,57.533Zm-14.406,0a2.158,2.158,0,1,0,2.16,2.158A2.159,2.159,0,0,0,66.992,57.533ZM95.805,43.149a2.158,2.158,0,1,0,2.16,2.157A2.16,2.16,0,0,0,95.805,43.149Zm-14.407,0a2.158,2.158,0,1,0,2.161,2.157A2.159,2.159,0,0,0,81.4,43.149Zm-14.406,0a2.158,2.158,0,1,0,2.16,2.157A2.16,2.16,0,0,0,66.992,43.149Zm-14.407,0h0a2.158,2.158,0,1,0,0,4.316h0A2.158,2.158,0,1,0,52.585,43.149Zm21.61,21.577a2.157,2.157,0,1,0,2.16,2.158A2.159,2.159,0,0,0,74.195,64.725Zm14.407,0a2.157,2.157,0,1,0,2.161,2.158A2.159,2.159,0,0,0,88.6,64.725ZM74.195,50.341a2.158,2.158,0,1,0,2.16,2.157A2.159,2.159,0,0,0,74.195,50.341ZM90.762,52.5A2.161,2.161,0,1,0,88.6,54.656,2.159,2.159,0,0,0,90.762,52.5Zm12.248-2.157a2.158,2.158,0,1,0,2.16,2.157A2.16,2.16,0,0,0,103.009,50.341Zm-43.221,0A2.158,2.158,0,1,0,61.949,52.5,2.159,2.159,0,0,0,59.788,50.341Zm7.2,35.959a2.158,2.158,0,1,0,2.16,2.157A2.159,2.159,0,0,0,66.992,86.3ZM81.4,71.916a2.158,2.158,0,1,0,2.161,2.158A2.16,2.16,0,0,0,81.4,71.916Zm-14.406,0a2.158,2.158,0,1,0,2.16,2.158A2.16,2.16,0,0,0,66.992,71.916Zm-14.407,0h0a2.158,2.158,0,1,0,0,4.316h0A2.158,2.158,0,1,0,52.585,71.916Zm21.61,7.192a2.158,2.158,0,1,0,2.16,2.158A2.16,2.16,0,0,0,74.195,79.108Zm-14.407,0a2.158,2.158,0,1,0,2.161,2.158A2.16,2.16,0,0,0,59.788,79.108Zm-7.2,21.576h0a2.158,2.158,0,1,0,0,4.315h0A2.158,2.158,0,1,0,52.585,100.684Zm0-96.371a2.158,2.158,0,1,0-2.162-2.158A2.16,2.16,0,0,0,52.584,4.313ZM45.38,7.19a2.157,2.157,0,1,0,2.162,2.157A2.159,2.159,0,0,0,45.38,7.19ZM59.788,11.5a2.157,2.157,0,1,0-2.163-2.157A2.16,2.16,0,0,0,59.788,11.5Zm-7.2,21.577a2.158,2.158,0,1,0-2.162-2.158A2.161,2.161,0,0,0,52.584,33.081Zm-7.2,2.877a2.157,2.157,0,1,0,2.162,2.158A2.159,2.159,0,0,0,45.38,35.958Zm14.408,4.314a2.157,2.157,0,1,0-2.163-2.157A2.16,2.16,0,0,0,59.788,40.272ZM45.38,21.574a2.158,2.158,0,1,0,2.162,2.158A2.159,2.159,0,0,0,45.38,21.574Zm-13.565.169a2.158,2.158,0,0,0-.841-0.169h0a2.158,2.158,0,1,0,0,4.315h0A2.157,2.157,0,0,0,31.815,21.743ZM52.584,61.848a2.158,2.158,0,1,0-2.162-2.157A2.16,2.16,0,0,0,52.584,61.848Zm-7.2,2.877a2.157,2.157,0,1,0,2.162,2.158A2.159,2.159,0,0,0,45.38,64.725ZM59.788,69.04a2.157,2.157,0,1,0-2.163-2.157A2.16,2.16,0,0,0,59.788,69.04ZM45.38,50.341A2.158,2.158,0,1,0,47.542,52.5,2.159,2.159,0,0,0,45.38,50.341Zm-13.565.169a2.158,2.158,0,0,0-.841-0.169h0A2.156,2.156,0,0,0,28.813,52.5a2.14,2.14,0,0,0,.17.84,2.163,2.163,0,0,0,1.991,1.318h0A2.157,2.157,0,0,0,31.815,50.511Zm20.768,40.1a2.158,2.158,0,1,0-2.162-2.157A2.16,2.16,0,0,0,52.584,90.616Zm-7.2,2.877a2.157,2.157,0,1,0,2.162,2.157A2.159,2.159,0,0,0,45.38,93.493Zm14.408,0a2.157,2.157,0,1,0,2.16,2.157A2.16,2.16,0,0,0,59.788,93.493ZM45.38,79.108a2.158,2.158,0,1,0,2.162,2.158A2.159,2.159,0,0,0,45.38,79.108Zm-13.565.17a2.157,2.157,0,0,0-.841-0.17h0a2.157,2.157,0,0,0-2.161,2.158,2.137,2.137,0,0,0,.17.839,2.162,2.162,0,0,0,1.991,1.319h0A2.158,2.158,0,0,0,31.815,79.278Zm6.363-50.513h0a2.158,2.158,0,1,0,0,4.316h0a2.158,2.158,0,0,0,1.988-1.318,2.153,2.153,0,0,0,0-1.68A2.158,2.158,0,0,0,38.179,28.765Zm-14.409,0a2.158,2.158,0,1,0,2.162,2.158A2.159,2.159,0,0,0,23.77,28.765ZM38.179,14.381h0a2.158,2.158,0,1,0,0,4.316h0a2.159,2.159,0,0,0,1.988-1.318,2.156,2.156,0,0,0,0-1.681A2.159,2.159,0,0,0,38.179,14.381ZM16.566,35.958a2.157,2.157,0,1,0,2.162,2.158A2.158,2.158,0,0,0,16.566,35.958Zm14.408,0a2.157,2.157,0,1,0,2.16,2.158A2.159,2.159,0,0,0,30.975,35.958Zm7.2,21.575h0a2.158,2.158,0,1,0,0,4.315h0a2.158,2.158,0,0,0,2.159-2.157,2.131,2.131,0,0,0-.17-0.84A2.158,2.158,0,0,0,38.179,57.533Zm-14.409,0a2.158,2.158,0,1,0,2.162,2.158A2.158,2.158,0,0,0,23.77,57.533Zm-14.406,0a2.158,2.158,0,1,0,2.16,2.158A2.159,2.159,0,0,0,9.364,57.533ZM38.179,43.149h0a2.158,2.158,0,1,0,0,4.316h0a2.158,2.158,0,0,0,1.988-1.318,2.153,2.153,0,0,0,0-1.679A2.158,2.158,0,0,0,38.179,43.149Zm-14.409,0a2.158,2.158,0,1,0,2.162,2.157A2.159,2.159,0,0,0,23.77,43.149Zm-14.406,0a2.158,2.158,0,1,0,2.16,2.157A2.16,2.16,0,0,0,9.364,43.149Zm7.2,21.577a2.157,2.157,0,1,0,2.162,2.158A2.159,2.159,0,0,0,16.566,64.725Zm14.408,0a2.157,2.157,0,1,0,2.16,2.158A2.159,2.159,0,0,0,30.975,64.725ZM16.566,50.341A2.158,2.158,0,1,0,18.728,52.5,2.158,2.158,0,0,0,16.566,50.341Zm-14.406,0A2.158,2.158,0,1,0,4.322,52.5,2.159,2.159,0,0,0,2.16,50.341ZM38.179,86.3h0a2.158,2.158,0,1,0,0,4.315h0A2.158,2.158,0,0,0,40.167,89.3a2.154,2.154,0,0,0,0-1.68A2.158,2.158,0,0,0,38.179,86.3Zm0-14.385h0a2.158,2.158,0,1,0,0,4.316h0a2.158,2.158,0,0,0,2.159-2.158,2.136,2.136,0,0,0-.17-0.84A2.158,2.158,0,0,0,38.179,71.916Zm-14.409,0a2.158,2.158,0,1,0,2.162,2.158A2.159,2.159,0,0,0,23.77,71.916Z"/>
</svg>
